<?xml version="1.0" encoding="UTF-8"?>
<svg id="Layer_1" data-name="Layer 1" xmlns="http://www.w3.org/2000/svg" version="1.1" viewBox="0 0 256.67 72.75">
  <defs>
    <style>
      .cls-1 {
        fill: #000;
      }

      .cls-1, .cls-2, .cls-3, .cls-4, .cls-5 {
        stroke-width: 0px;
      }

      .cls-2 {
        fill: #b3b3b3;
      }

      .cls-3, .cls-4 {
        fill: #f32409;
      }

      .cls-4 {
        fill-rule: evenodd;
      }

      .cls-5 {
        fill: #050c56;
      }
    </style>
  </defs>
  <path class="cls-2" d="M75.56,69.74c-.28,0-.5-.22-.5-.5V8.43c0-.28.22-.5.5-.5s.5.22.5.5v60.81c0,.28-.22.5-.5.5Z"/>
  <g>
    <polygon class="cls-5" points="0 13.29 0 14.74 13.42 18.75 13.42 66 20.58 66 20.58 13.29 0 13.29"/>
    <path class="cls-4" d="M51.63.69c.43-.63-.13-.99-.67-.37-7.77,9.05-23.36,29.16-26.74,46.75-.78,4.06-.99,7.85-.14,11.6.81,3.58,3.64,7.8,9.38,7.99,9.74.32,17.63-10.94,23.64-27.05.11-.29-.28-.49-.41-.22-6.6,13.79-17.14,22.81-22.77,20.11-9.29-4.45,1.68-35.49,17.71-58.8Z"/>
  </g>
  <g>
    <path class="cls-1" d="M118.26,66v-16.05h4.07v1.51c1.51-1.37,3.4-1.84,5.25-1.84,3.74,0,6.68,2.37,6.68,6.84v9.54h-4.07v-7.94c0-2.63-1.02-4.4-3.76-4.4s-4.1,1.91-4.1,4.4v7.94h-4.07Z"/>
    <path class="cls-1" d="M136.05,66v-16.05h4.07v16.05h-4.07Z"/>
    <path class="cls-1" d="M157.88,49.98l-4.53,16.05h-7.37l-4.64-16.05h4.29l3.9,14.08h.28l3.97-14.08h4.11Z"/>
    <path class="cls-1" d="M237.43,49.95l-5.29,18.86-.49,1.73c-.37,1.3-1.56,2.21-2.91,2.21h-5v-3.94h3.79c.29,0,.54-.19.61-.47l.65-2.34h-3.28l-4.65-16.05h4.29l3.9,14.08h.27l3.97-14.08h4.11Z"/>
    <path class="cls-1" d="M165.87,49.67c3.84,0,7.86,2.03,7.86,8.38,0,.41,0,.84-.07,1.52h-11.66c.47,1.57,1.78,2.79,5.04,2.79,1.78,0,4.28-.65,6-1.65h.03v4.04c-2.59,1.17-4.19,1.51-6.42,1.51-5.19,0-8.78-2.75-8.78-8.3s3.85-8.3,7.99-8.3ZM169.6,56.34c-.13-1.18-1.21-2.76-3.73-2.76-1.95,0-3.54.95-3.92,2.76h7.65Z"/>
    <path class="cls-1" d="M175.64,66v-16.05h4.07v1.46c.87-1.07,2.43-1.84,4.51-1.84,1.14,0,1.86.18,2.28.3v4.51h-.03c-.63-.53-1.72-.91-2.71-.91-1.75,0-4.05.96-4.05,3.45v9.09h-4.07Z"/>
    <path class="cls-1" d="M194.84,49.62c2.71,0,5.18.95,6.24,1.64v4.12c-3.25-2.02-9.48-2.41-9.48-.7,0,.55.62.88,2.94,1.37l1.39.29c3.96.84,5.77,2.21,5.77,5.18,0,3.02-2.21,4.87-7.21,4.87-3.02,0-5.63-.81-7.09-1.84v-4.37c1.33.83,4.13,2.15,7.37,2.33,1.9.1,2.75-.34,2.75-1.06s-.95-1.06-2.98-1.46l-.98-.19c-3.97-.78-6.08-2.2-6.08-5.08,0-3.44,3.19-5.08,7.37-5.08Z"/>
    <g>
      <rect class="cls-1" x="203.25" y="49.95" width="4.07" height="16.05"/>
      <path class="cls-3" d="M203.25,43.95h4.36v.96c0,1.88-1.52,3.4-3.4,3.4h-.96v-4.36h0Z"/>
    </g>
    <path class="cls-1" d="M212.47,53.8h-3.35v-3.85h3.35v-4.77h4.07v4.77h3.35v3.85h-3.35v12.2h-4.07v-12.2Z"/>
    <path class="cls-1" d="M112.12,43.89v12.96c0,3.03-2.04,5.33-5.15,5.33s-5.15-2.28-5.15-5.33v-12.96h-4.12v13.84c0,1.7.45,3.2,1.35,4.51.9,1.31,2.08,2.34,3.55,3.07,3.76,1.88,7.39.68,8.75,0,1.47-.73,2.65-1.75,3.55-3.07.9-1.31,1.35-2.81,1.35-4.51v-13.84h-4.12Z"/>
    <g>
      <path class="cls-1" d="M109.02,13.29v4.01h-7.13v18.39h-4.18v-18.39h-7.13v-4.01h18.45Z"/>
      <path class="cls-1" d="M110.35,35.69V13.29h4.13v7.66c1.53-1.39,3.44-1.87,5.32-1.87,3.79,0,6.77,2.12,6.77,6.38v10.23h-4.13v-8.05c0-2.66-1.03-4.46-3.82-4.46s-4.15,1.94-4.15,4.46v8.05h-4.13Z"/>
      <path class="cls-1" d="M140.87,34.58c-1.13.95-2.86,1.45-4.79,1.45-3.93,0-7.94-2.84-7.94-8.47s4.01-8.47,8-8.47c1.88,0,3.61.5,4.74,1.39v-1.06h4.13v16.28h-4.13v-1.11ZM136.69,32.02c2.37,0,4.35-1.7,4.35-4.46s-1.98-4.46-4.35-4.46-4.35,1.7-4.35,4.46,1.98,4.46,4.35,4.46Z"/>
      <path class="cls-1" d="M146.85,35.69v-16.28h4.13v1.53c1.53-1.39,3.44-1.87,5.32-1.87,3.79,0,6.77,2.4,6.77,6.94v9.67h-4.13v-8.05c0-2.66-1.03-4.46-3.82-4.46s-4.15,1.94-4.15,4.46v8.05h-4.13Z"/>
      <path class="cls-1" d="M174.5,42.8l-7.78-.03v-3.9l6.74.03c2.94.01,3.85-.46,3.85-3.26v-1.06c-1.13.95-2.72,1.45-4.65,1.45-3.93,0-7.94-2.84-7.94-8.47s4.01-8.47,8-8.47c1.88,0,3.47.5,4.6,1.39v-1.06h4.13v16.39c0,5.52-1.98,7.01-6.94,7ZM173.28,32.02c2.37,0,4.35-1.7,4.35-4.46s-1.98-4.46-4.35-4.46-4.35,1.7-4.35,4.46,1.98,4.46,4.35,4.46Z"/>
      <path class="cls-1" d="M188.75,13.29h4.18v18.34h9.87v4.07h-14.05V13.29Z"/>
      <path class="cls-1" d="M203.61,27.56c0-5.63,4.15-8.47,8.56-8.47s8.56,2.84,8.56,8.47-4.15,8.47-8.56,8.47-8.56-2.84-8.56-8.47ZM212.16,32.02c2.37,0,4.35-1.7,4.35-4.46s-1.98-4.46-4.35-4.46-4.35,1.7-4.35,4.46,1.98,4.46,4.35,4.46Z"/>
      <path class="cls-1" d="M222.17,35.69v-16.28h4.13v1.53c1.53-1.39,3.44-1.87,5.32-1.87,3.79,0,6.77,2.4,6.77,6.94v9.67h-4.12v-8.05c0-2.66-1.03-4.46-3.82-4.46s-4.15,1.94-4.15,4.46v8.05h-4.13Z"/>
      <path class="cls-1" d="M249.73,42.8l-7.78-.03v-3.9l6.74.03c2.94.01,3.85-.46,3.85-3.26v-1.06c-1.13.95-2.72,1.45-4.65,1.45-3.93,0-7.94-2.84-7.94-8.47s4.01-8.47,8-8.47c1.88,0,3.47.5,4.6,1.39v-1.06h4.13v16.39c0,5.52-1.98,7.01-6.94,7ZM248.5,32.02c2.37,0,4.35-1.7,4.35-4.46s-1.98-4.46-4.35-4.46-4.35,1.7-4.35,4.46,1.98,4.46,4.35,4.46Z"/>
    </g>
  </g>
</svg>